<svg width="1175" height="1382" viewBox="0 0 1175 1382" fill="none" xmlns="http://www.w3.org/2000/svg">
<path d="M595.228 1020.87L721.911 769.646C975.686 833.793 1165 1075.84 1165 1365.31C1165 1367.25 1164.99 1369.19 1164.97 1371.12H10.0254C10.0085 1369.19 10 1367.25 10 1365.31C10 1075.1 200.28 832.56 455.031 769.159L577.305 1020.74L586.133 1038.9L595.228 1020.87ZM899.967 344.546C899.967 529.885 759.586 678.973 587.799 678.973C416.012 678.973 275.631 529.885 275.631 344.546C275.631 159.208 416.012 10.1196 587.799 10.1196C759.586 10.1196 899.967 159.208 899.967 344.546Z" fill="white" stroke="#42E3D6" stroke-width="20"/>
<path d="M881.906 1014.96C886.143 1014.96 889.577 1018.86 889.577 1023.68V1067.47C889.577 1072.28 893.012 1076.19 897.249 1076.19H935.797C940.033 1076.19 943.468 1080.09 943.468 1084.9V1178.15C943.468 1182.97 940.033 1186.87 935.797 1186.87H897.249C893.012 1186.87 889.577 1190.77 889.577 1195.58V1239.38C889.577 1244.19 886.143 1248.09 881.906 1248.09H799.824C795.587 1248.09 792.152 1244.19 792.152 1239.38V1195.58C792.152 1190.77 788.718 1186.87 784.481 1186.87H745.933C741.696 1186.87 738.262 1182.97 738.262 1178.15V1084.9C738.262 1080.09 741.696 1076.19 745.933 1076.19H784.481C788.718 1076.19 792.152 1072.28 792.152 1067.47V1023.68C792.152 1018.86 795.587 1014.96 799.824 1014.96H881.906Z" fill="#42E3D6"/>
</svg>
