<svg width="64" height="72" viewBox="0 0 64 72" fill="none" xmlns="http://www.w3.org/2000/svg">
<path fill-rule="evenodd" clip-rule="evenodd" d="M0 61.2C0 64.0643 1.12381 66.8114 3.12419 68.8368C5.12458 70.8621 7.83769 72 10.6667 72H53.3333C56.1623 72 58.8754 70.8621 60.8758 68.8368C62.8762 66.8114 64 64.0643 64 61.2V24.5808C63.9985 21.7179 62.8743 18.9728 60.8747 16.9488L47.264 3.1608C45.2635 1.13659 42.5509 -0.000343084 39.7227 7.76604e-08H10.6667C7.83769 7.76604e-08 5.12458 1.13785 3.12419 3.16325C1.12381 5.18864 0 7.93566 0 10.8V61.2ZM17.7778 36C16.8348 36 15.9304 36.3793 15.2636 37.0544C14.5968 37.7295 14.2222 38.6452 14.2222 39.6C14.2222 40.5548 14.5968 41.4705 15.2636 42.1456C15.9304 42.8207 16.8348 43.2 17.7778 43.2H46.2222C47.1652 43.2 48.0696 42.8207 48.7364 42.1456C49.4032 41.4705 49.7778 40.5548 49.7778 39.6C49.7778 38.6452 49.4032 37.7295 48.7364 37.0544C48.0696 36.3793 47.1652 36 46.2222 36H17.7778ZM17.7778 50.4C16.8348 50.4 15.9304 50.7793 15.2636 51.4544C14.5968 52.1295 14.2222 53.0452 14.2222 54C14.2222 54.9548 14.5968 55.8705 15.2636 56.5456C15.9304 57.2207 16.8348 57.6 17.7778 57.6H32C32.943 57.6 33.8474 57.2207 34.5142 56.5456C35.181 55.8705 35.5556 54.9548 35.5556 54C35.5556 53.0452 35.181 52.1295 34.5142 51.4544C33.8474 50.7793 32.943 50.4 32 50.4H17.7778Z" fill="#42E3D6"/>
</svg>
