<svg width="20" height="20" viewBox="0 0 20 20" fill="none" xmlns="http://www.w3.org/2000/svg">
<path fill-rule="evenodd" clip-rule="evenodd" d="M7.15722 18.7714V15.7047C7.1572 14.9246 7.79312 14.2908 8.58101 14.2856H11.4671C12.2587 14.2856 12.9005 14.9209 12.9005 15.7047V18.7809C12.9003 19.4432 13.4343 19.9845 14.103 20H16.0271C17.9451 20 19.5 18.4607 19.5 16.5618V7.83784C19.4898 7.09083 19.1355 6.38935 18.538 5.93303L11.9577 0.685301C10.8049 -0.228434 9.1662 -0.228434 8.01342 0.685301L1.46203 5.94256C0.862259 6.39702 0.507387 7.09967 0.5 7.84736V16.5618C0.5 18.4607 2.05488 20 3.97291 20H5.89696C6.58235 20 7.13797 19.4499 7.13797 18.7714" fill="#42E3D6"/>
</svg>
