<svg width="1841" height="1473" viewBox="0 0 1841 1473" fill="none" xmlns="http://www.w3.org/2000/svg">
<path d="M1101.3 674.12C1116.14 674.12 1128.18 685.534 1128.18 699.615V827.729C1128.18 841.81 1140.21 853.224 1155.06 853.224H1290.12C1304.97 853.224 1317 864.639 1317 878.72V1151.52C1317 1165.6 1304.97 1177.01 1290.12 1177.01H1155.06C1140.21 1177.01 1128.18 1188.43 1128.18 1202.51V1330.62C1128.18 1344.7 1116.14 1356.12 1101.3 1356.12H813.699C798.855 1356.12 786.821 1344.7 786.821 1330.62V1202.51C786.821 1188.43 774.787 1177.01 759.942 1177.01H624.878C610.033 1177.01 597.999 1165.6 597.999 1151.52V878.72C597.999 864.639 610.033 853.224 624.878 853.224H759.942C774.787 853.224 786.821 841.81 786.821 827.729V699.615C786.821 685.534 798.855 674.12 813.699 674.12H1101.3Z" fill="#42E3D6"/>
<path fill-rule="evenodd" clip-rule="evenodd" d="M941.297 0L23.2678 535.754C-16.3999 558.904 0.0210152 619.62 45.9494 619.62H204.999V1247.12C204.999 1371.38 305.735 1472.12 429.999 1472.12H1449C1573.26 1472.12 1674 1371.38 1674 1247.12V619.62H1794.94C1840.39 619.62 1857.19 559.929 1818.41 536.226L941.297 0ZM254.999 1247.12V621.12H1624V1247.12C1624 1343.77 1545.65 1422.12 1449 1422.12H429.999C333.349 1422.12 254.999 1343.77 254.999 1247.12ZM1777.18 569.62H64.437L940.701 58.2394L1777.18 569.62Z" fill="#42E3D6"/>
</svg>
