<svg width="55" height="76" viewBox="0 0 55 76" fill="none" xmlns="http://www.w3.org/2000/svg">
<circle cx="26" cy="6" r="3" fill="#42E3D6"/>
<circle cx="21" cy="5" r="1" fill="#42E3D6"/>
<circle cx="22.5" cy="1.5" r="1.5" fill="#42E3D6"/>
<path fill-rule="evenodd" clip-rule="evenodd" d="M20.554 15C19.7614 15 19.1189 15.7557 19.1189 16.6879C19.1189 17.6201 19.7614 18.3758 20.554 18.3758H22.2762V34.804L1.3068 64.9756C-1.75735 69.3844 0.90977 76 5.75135 76H49.2486C54.0902 76 56.7574 69.3844 53.6932 64.9756L32.4368 34.391V18.3758H34.1015C34.8941 18.3758 35.5367 17.6201 35.5367 16.6879C35.5367 15.7557 34.8941 15 34.1015 15H20.554ZM26.014 49.1707C26.6192 49.1707 27.2065 49.1012 27.7668 48.9706C28.4889 50.7576 30.2158 52.0158 32.2312 52.0158C33.9453 52.0158 35.4506 51.1058 36.3066 49.7342L47.4286 64.6043C49.4014 67.2419 47.5192 71.0001 44.2255 71.0001H10.7678C7.47406 71.0001 5.59188 67.2419 7.56467 64.6043L20.7316 47.0002C22.022 48.3312 23.9103 49.1707 26.014 49.1707Z" fill="#42E3D6"/>
<path fill-rule="evenodd" clip-rule="evenodd" d="M20.554 15C19.7614 15 19.1189 15.7557 19.1189 16.6879C19.1189 17.6201 19.7614 18.3758 20.554 18.3758H22.2762V34.804L1.3068 64.9756C-1.75735 69.3844 0.90977 76 5.75135 76H49.2486C54.0902 76 56.7574 69.3844 53.6932 64.9756L32.4368 34.391V18.3758H34.1015C34.8941 18.3758 35.5367 17.6201 35.5367 16.6879C35.5367 15.7557 34.8941 15 34.1015 15H20.554ZM26.014 49.1707C26.6192 49.1707 27.2065 49.1012 27.7668 48.9706C28.4889 50.7576 30.2158 52.0158 32.2312 52.0158C33.9453 52.0158 35.4506 51.1058 36.3066 49.7342L47.4286 64.6043C49.4014 67.2419 47.5192 71.0001 44.2255 71.0001H10.7678C7.47406 71.0001 5.59188 67.2419 7.56467 64.6043L20.7316 47.0002C22.022 48.3312 23.9103 49.1707 26.014 49.1707Z" fill="#42E3D6"/>
</svg>
