<svg width="130" height="129" viewBox="0 0 130 129" fill="none" xmlns="http://www.w3.org/2000/svg">
<path d="M38.4372 11.7273C38.4372 5.25048 43.7284 0 50.2554 0H79.7446C86.2716 0 91.5628 5.25048 91.5628 11.7273V38.1416H118.182C124.709 38.1416 130 43.392 130 49.8688V79.1312C130 85.608 124.709 90.8584 118.182 90.8584H98.9994C93.1452 81.1711 92.4033 70.4921 93.2511 64.4442C93.2511 49.2083 80.6026 36.8571 65 36.8571C49.3974 36.8571 36.7489 49.2083 36.7489 64.4442C36.7489 79.68 49.3974 92.0312 65 92.0312C75.8528 90.7424 84.655 92.446 91.5628 95.494V117.273C91.5628 123.75 86.2716 129 79.7446 129H50.2554C43.7284 129 38.4372 123.75 38.4372 117.273V90.8584H11.8182C5.29118 90.8584 0 85.608 0 79.1312V49.8688C0 43.392 5.29118 38.1416 11.8182 38.1416H38.4372V11.7273Z" fill="white"/>
<path fill-rule="evenodd" clip-rule="evenodd" d="M39.2251 64.2766C39.2251 50.737 50.4685 39.2584 64.2684 39.2584C87.8485 39.2584 89.8745 58.3013 90.0433 62.2104C90.0482 62.3236 90.0534 62.4467 90.0589 62.5791C90.2455 67.0164 90.8735 81.9492 96.0649 90.3C101.411 98.9 105.126 101.301 110.584 102.865C121.164 103.479 121.164 110.125 121.164 112.861C121.164 114.475 120.116 117.303 117.732 119.339C116.074 120.754 113.655 121.64 110.978 122.075C104.45 123.136 99.9481 115.43 101.636 109.79C103.896 102.24 95.3896 95.8286 92.9697 94.3208C90.5498 92.813 81.3203 89.6299 74.2857 89.6299C44.7965 92.5338 38.6061 73.5468 39.2251 64.2766ZM65 86.6701C77.5878 86.6701 87.7922 76.8192 87.7922 64.6675C87.7922 52.5158 77.5878 42.6649 65 42.6649C52.4122 42.6649 42.2078 52.5158 42.2078 64.6675C42.2078 76.8192 52.4122 86.6701 65 86.6701Z" fill="white"/>
</svg>
