<svg width="54" height="63" viewBox="0 0 54 63" fill="none" xmlns="http://www.w3.org/2000/svg">
<path fill-rule="evenodd" clip-rule="evenodd" d="M27.0138 31.4249C35.1909 31.4249 41.8198 24.3902 41.8198 15.7124C41.8198 7.0347 35.1909 0 27.0138 0C18.8366 0 12.2077 7.0347 12.2077 15.7124C12.2077 24.3902 18.8366 31.4249 27.0138 31.4249ZM22.5619 37.4088C21.7433 35.7371 19.8659 34.8204 18.1181 35.4603C7.56971 39.3225 0 49.8712 0 62.279C0 62.68 0.328648 63 0.729633 63H53.2704C53.6713 63 54 62.68 54 62.279C54 49.8942 46.4583 39.3615 35.9405 35.4818C34.2094 34.8433 32.3432 35.7336 31.5076 37.3786L26.9448 46.3603L22.5619 37.4088ZM40.5938 46.7929C40.5938 46.5875 40.4385 46.4211 40.2469 46.4211H36.5344C36.3428 46.4211 36.1874 46.5875 36.1874 46.7929V48.6615C36.1874 48.8669 36.0321 49.0334 35.8405 49.0334H34.097C33.9053 49.0334 33.75 49.1999 33.75 49.4053V53.3842C33.75 53.5896 33.9053 53.7561 34.097 53.7561H35.8405C36.0321 53.7561 36.1874 53.9226 36.1874 54.1279V55.9966C36.1874 56.2019 36.3428 56.3684 36.5344 56.3684H40.2469C40.4385 56.3684 40.5938 56.2019 40.5938 55.9966V54.1279C40.5938 53.9226 40.7492 53.7561 40.9408 53.7561H42.6843C42.8759 53.7561 43.0312 53.5896 43.0312 53.3842V49.4053C43.0312 49.1999 42.8759 49.0334 42.6843 49.0334H40.9408C40.7492 49.0334 40.5938 48.8669 40.5938 48.6615V46.7929Z" fill="#42E3D6"/>
</svg>
