<svg width="30" height="31" viewBox="0 0 30 31" fill="none" xmlns="http://www.w3.org/2000/svg">
<path fill-rule="evenodd" clip-rule="evenodd" d="M10.7358 28.2916V23.8193C10.7358 22.6817 11.6897 21.7574 12.8715 21.7498H17.2006C18.3881 21.7498 19.3508 22.6763 19.3508 23.8193V28.3055C19.3505 29.2713 20.1514 30.0607 21.1546 30.0833H24.0406C26.9177 30.0833 29.25 27.8385 29.25 25.0693V12.3468C29.2346 11.2574 28.7032 10.2344 27.807 9.56897L17.9366 1.91602C16.2074 0.583493 13.7493 0.583493 12.0201 1.91602L2.19304 9.58286C1.29339 10.2456 0.76108 11.2703 0.75 12.3607V25.0693C0.75 27.8385 3.08231 30.0833 5.95937 30.0833H8.84544C9.87353 30.0833 10.707 29.2811 10.707 28.2916" fill="white"/>
<path d="M16.3 8C16.4858 8 16.6364 8.15063 16.6364 8.33645V10.0271C16.6364 10.2129 16.7871 10.3636 16.9729 10.3636H18.6636C18.8494 10.3636 19 10.5142 19 10.7V14.3C19 14.4858 18.8494 14.6364 18.6636 14.6364H16.9729C16.7871 14.6364 16.6364 14.7871 16.6364 14.9729V16.6636C16.6364 16.8494 16.4858 17 16.3 17H12.7C12.5142 17 12.3636 16.8494 12.3636 16.6636V14.9729C12.3636 14.7871 12.2129 14.6364 12.0271 14.6364H10.3364C10.1506 14.6364 10 14.4858 10 14.3V10.7C10 10.5142 10.1506 10.3636 10.3364 10.3636H12.0271C12.2129 10.3636 12.3636 10.2129 12.3636 10.0271V8.33645C12.3636 8.15063 12.5142 8 12.7 8H16.3Z" fill="#42E3D6"/>
</svg>
