<svg width="54" height="51" viewBox="0 0 54 51" fill="none" xmlns="http://www.w3.org/2000/svg">
<path fill-rule="evenodd" clip-rule="evenodd" d="M19.1823 47.4166V39.8254C19.1823 37.8945 20.9311 36.3256 23.0978 36.3126H31.0345C33.2115 36.3126 34.9764 37.8853 34.9764 39.8254V47.4402C34.9759 49.0796 36.4442 50.4194 38.2834 50.4579H43.5745C48.8491 50.4579 53.125 46.6475 53.125 41.9472V20.3521C53.0968 18.503 52.1226 16.7666 50.4794 15.6371L32.3837 2.64705C29.2136 0.385228 24.7071 0.385228 21.5369 2.64705L3.52057 15.6606C1.87121 16.7856 0.895313 18.5249 0.875 20.3757V41.9472C0.875 46.6475 5.15091 50.4579 10.4255 50.4579H15.7166C17.6015 50.4579 19.1294 49.0963 19.1294 47.4166" fill="#42E3D6"/>
<path d="M24.46 27L22.562 23.555H22.029V27H19.806V17.874H23.537C24.2563 17.874 24.8673 17.9997 25.37 18.251C25.8813 18.5023 26.2627 18.849 26.514 19.291C26.7653 19.7243 26.891 20.2097 26.891 20.747C26.891 21.3537 26.7177 21.8953 26.371 22.372C26.033 22.8487 25.5303 23.1867 24.863 23.386L26.969 27H24.46ZM22.029 21.982H23.407C23.8143 21.982 24.1177 21.8823 24.317 21.683C24.525 21.4837 24.629 21.202 24.629 20.838C24.629 20.4913 24.525 20.2183 24.317 20.019C24.1177 19.8197 23.8143 19.72 23.407 19.72H22.029V21.982ZM32.5765 27L31.1855 24.985L30.0155 27H27.6105L30.0025 23.295L27.5455 19.746H30.0415L31.4325 21.748L32.6025 19.746H35.0075L32.5765 23.399L35.0725 27H32.5765Z" fill="white"/>
</svg>
