<svg width="278" height="293" viewBox="0 0 278 293" fill="none" xmlns="http://www.w3.org/2000/svg">
<path d="M132.427 292.77C205.42 292.77 264.88 266.247 276.611 192.256C288.342 118.265 186.894 152.722 188.78 85.6391C190.666 18.5839 168.313 -20.3953 107.106 11.0655C45.8995 42.5262 55.1623 108.777 46.1213 139.516C28.5386 199.164 -68.3885 292.77 132.427 292.77Z" fill="#42E3D6"/>
<path d="M38.6046 145.9C45.0256 128.068 44.1915 111.437 36.7416 108.752C29.2918 106.067 18.0472 118.346 11.6262 136.178C5.20524 154.009 6.03931 170.641 13.4892 173.325C20.939 176.01 32.1836 163.731 38.6046 145.9Z" fill="#42E3D6"/>
<path d="M251.779 110.367C261.329 102.018 259.87 84.7178 248.52 71.7265C237.17 58.7352 220.227 54.972 210.678 63.3212C201.128 71.6703 202.588 88.9701 213.938 101.961C225.287 114.953 242.23 118.716 251.779 110.367Z" fill="#42E3D6"/>
</svg>
