<svg width="28" height="30" viewBox="0 0 28 30" fill="none" xmlns="http://www.w3.org/2000/svg">
<path fill-rule="evenodd" clip-rule="evenodd" d="M9.97268 23.313V19.5758C9.97266 18.6252 10.8735 17.8528 11.9897 17.8465H16.0783C17.1998 17.8465 18.109 18.6207 18.109 19.5758V23.3247C18.1087 24.1317 18.8652 24.7913 19.8126 24.8103H22.5383C25.2556 24.8103 27.4583 22.9344 27.4583 20.6204V9.98898C27.4438 9.07865 26.9419 8.2238 26.0954 7.66772L16.7734 1.27263C15.1403 0.159122 12.8187 0.159122 11.1856 1.27263L1.9045 7.67933C1.05483 8.23315 0.55209 9.08942 0.541626 10.0006V20.6204C0.541626 22.9344 2.74437 24.8103 5.46158 24.8103H8.18732C9.15829 24.8103 9.94542 24.1399 9.94542 23.313" fill="#42E3D6"/>
<path d="M12.78 13L11.466 10.615H11.097V13H9.558V6.682H12.141C12.639 6.682 13.062 6.769 13.41 6.943C13.764 7.117 14.028 7.357 14.202 7.663C14.376 7.963 14.463 8.299 14.463 8.671C14.463 9.091 14.343 9.466 14.103 9.796C13.869 10.126 13.521 10.36 13.059 10.498L14.517 13H12.78ZM11.097 9.526H12.051C12.333 9.526 12.543 9.457 12.681 9.319C12.825 9.181 12.897 8.986 12.897 8.734C12.897 8.494 12.825 8.305 12.681 8.167C12.543 8.029 12.333 7.96 12.051 7.96H11.097V9.526ZM18.3991 13L17.4361 11.605L16.6261 13H14.9611L16.6171 10.435L14.9161 7.978H16.6441L17.6071 9.364L18.4171 7.978H20.0821L18.3991 10.507L20.1271 13H18.3991Z" fill="white"/>
<ellipse cx="14" cy="27.4195" rx="3.14815" ry="2.58065" fill="#42E3D6"/>
</svg>
