<svg width="23" height="23" viewBox="0 0 23 23" fill="none" xmlns="http://www.w3.org/2000/svg">
<rect width="23" height="23" rx="4" fill="#DB5449"/>
<path d="M16.1855 13.3367C15.9804 13.5355 15.8862 13.8228 15.9329 14.1047L16.6367 17.9997C16.6961 18.3298 16.5568 18.6639 16.2805 18.8547C16.0097 19.0526 15.6495 19.0763 15.3542 18.918L11.8479 17.0892C11.726 17.0243 11.5906 16.9895 11.4521 16.9855H11.2376C11.1631 16.9966 11.0903 17.0204 11.0238 17.0568L7.51673 18.8942C7.34336 18.9813 7.14702 19.0122 6.95465 18.9813C6.48598 18.8927 6.17327 18.4462 6.25007 17.9751L6.95465 14.0801C7.00136 13.7959 6.90715 13.507 6.70211 13.3051L3.8434 10.5342C3.60432 10.3023 3.52119 9.95396 3.63044 9.63966C3.73652 9.32616 4.00727 9.09737 4.33423 9.04591L8.26882 8.47512C8.56807 8.44425 8.8309 8.26216 8.96548 7.993L10.6992 4.43841C10.7404 4.35925 10.7934 4.28641 10.8576 4.22466L10.9288 4.16925C10.966 4.12808 11.0088 4.09404 11.0563 4.06633L11.1426 4.03466L11.2771 3.97925H11.6104C11.9081 4.01012 12.1701 4.18825 12.3071 4.45425L14.0638 7.993C14.1905 8.25187 14.4367 8.43158 14.7209 8.47512L18.6555 9.04591C18.988 9.09341 19.2659 9.323 19.3759 9.63966C19.4796 9.95712 19.3901 10.3055 19.1463 10.5342L16.1855 13.3367Z" fill="white"/>
</svg>
