<svg width="87" height="71" viewBox="0 0 87 71" fill="none" xmlns="http://www.w3.org/2000/svg">
<path fill-rule="evenodd" clip-rule="evenodd" d="M21.5974 30.8669C21.5974 26.2916 25.172 22.5825 29.5815 22.5825H57.4371C61.8466 22.5825 65.4212 26.2916 65.4212 30.8669V62.7156C65.4212 67.291 61.8466 71 57.4371 71H29.5815C25.172 71 21.5974 67.291 21.5974 62.7156V30.8669ZM29.5815 25.0372H57.4371C60.5401 25.0372 63.0556 27.6472 63.0556 30.8669V62.7156C63.0556 65.9353 60.5401 68.5454 57.4371 68.5454H29.5815C26.4785 68.5454 23.9631 65.9353 23.9631 62.7156V30.8669C23.9631 27.6472 26.4785 25.0372 29.5815 25.0372Z" fill="white"/>
<path d="M36.8559 15.8937C36.8559 15.2159 37.3855 14.6664 38.0387 14.6664H38.571C39.2243 14.6664 39.7538 15.2159 39.7538 15.8937V22.5825H36.8559V15.8937Z" fill="white"/>
<path d="M31.6515 13.8686C31.6515 13.1908 32.181 12.6413 32.8343 12.6413H33.3666C34.0198 12.6413 34.5494 13.1908 34.5494 13.8686V22.5825H31.6515V13.8686Z" fill="white"/>
<path d="M25.0834 15.816C24.4303 15.8291 23.8906 15.2903 23.8779 14.6126L23.8676 14.0605C23.855 13.3828 24.3743 12.8228 25.0274 12.8097L33.4239 12.6413L33.4799 15.6477L25.0834 15.816Z" fill="white"/>
<path d="M47.2648 15.8937C47.2648 15.2159 47.7944 14.6664 48.4476 14.6664H48.9799C49.6332 14.6664 50.1627 15.2159 50.1627 15.8937V22.5825H47.2648V15.8937Z" fill="white"/>
<path d="M52.4692 9.4503C52.4692 8.77248 52.9988 8.22299 53.6521 8.22299H54.1843C54.8376 8.22299 55.3672 8.77248 55.3672 9.4503V22.5825H52.4692V9.4503Z" fill="white"/>
<path d="M65.144 8.1854C65.7973 8.18979 66.3234 8.74283 66.3192 9.42064L66.3157 9.97292C66.3115 10.6507 65.7785 11.1966 65.1252 11.1922L52.4692 11.1071L52.488 8.10025L65.144 8.1854Z" fill="white"/>
<path d="M42.0604 1.22731C42.0604 0.549486 42.5899 0 43.2432 0H43.7755C44.4287 0 44.9583 0.549486 44.9583 1.22731V22.5825H42.0604V1.22731Z" fill="white"/>
<path d="M27.0384 14.3596C27.0384 15.7491 25.9528 16.8755 24.6136 16.8755C23.2745 16.8755 22.1888 15.7491 22.1888 14.3596C22.1888 12.97 23.2745 11.8436 24.6136 11.8436C25.9528 11.8436 27.0384 12.97 27.0384 14.3596Z" fill="white"/>
<path d="M67.846 9.6344C67.846 11.0239 66.7604 12.1504 65.4212 12.1504C64.082 12.1504 62.9964 11.0239 62.9964 9.6344C62.9964 8.24486 64.082 7.11841 65.4212 7.11841C66.7604 7.11841 67.846 8.24486 67.846 9.6344Z" fill="white"/>
<path d="M71.6283 37.742C72.2815 37.7366 72.8152 38.2818 72.8204 38.9596L72.8246 39.5118C72.8297 40.1896 72.3043 40.7434 71.6511 40.7488L65.2049 40.8015L65.182 37.7947L71.6283 37.742Z" fill="white"/>
<path d="M73.5388 32.326C74.192 32.3206 74.7258 32.8658 74.7309 33.5436L74.7351 34.0959C74.7403 34.7737 74.2149 35.3275 73.5617 35.3328L65.1638 35.4015L65.141 32.3947L73.5388 32.326Z" fill="white"/>
<path d="M71.6103 25.5265C71.5925 24.8489 72.1075 24.2847 72.7605 24.2662L73.2926 24.2512C73.9456 24.2328 74.4894 24.7671 74.5071 25.4447L74.7356 34.1554L71.8387 34.2372L71.6103 25.5265Z" fill="white"/>
<path d="M71.7103 48.542C72.3636 48.5366 72.8973 49.0818 72.9024 49.7596L72.9066 50.3118C72.9118 50.9897 72.3864 51.5434 71.7332 51.5488L65.287 51.6015L65.2641 48.5947L71.7103 48.542Z" fill="white"/>
<path d="M77.961 53.8912C78.6143 53.8858 79.148 54.431 79.1531 55.1088L79.1573 55.661C79.1625 56.3388 78.6371 56.8926 77.9839 56.898L65.328 57.0015L65.3051 53.9947L77.961 53.8912Z" fill="white"/>
<path d="M79.28 67.0322C79.2809 67.7101 78.7521 68.2603 78.0988 68.2613L77.5665 68.262C76.9133 68.263 76.383 67.7143 76.3821 67.0365L76.3643 53.9042L79.2622 53.9L79.28 67.0322Z" fill="white"/>
<path d="M85.8036 43.0263C86.4569 43.021 86.9906 43.5661 86.9958 44.2439L87 44.7962C87.0051 45.474 86.4797 46.0278 85.8265 46.0331L65.2459 46.2015L65.2231 43.1947L85.8036 43.0263Z" fill="white"/>
<path d="M73.0293 27.5435C71.6902 27.5545 70.596 26.4369 70.5855 25.0474C70.5749 23.6579 71.6519 22.5226 72.9911 22.5117C74.3302 22.5007 75.4244 23.6182 75.4349 25.0077C75.4455 26.3972 74.3685 27.5325 73.0293 27.5435Z" fill="white"/>
<path d="M77.9049 69.8472C76.5657 69.8581 75.4716 68.7406 75.461 67.3511C75.4505 65.9616 76.5275 64.8263 77.8666 64.8154C79.2057 64.8044 80.2999 65.9219 80.3105 67.3114C80.321 68.7009 79.244 69.8362 77.9049 69.8472Z" fill="white"/>
<path d="M15.3652 53.2495C14.712 53.2542 14.1787 52.7085 14.1742 52.0307L14.1705 51.4784C14.166 50.8006 14.6919 50.2474 15.3451 50.2427L21.7914 50.1964L21.8115 53.2032L15.3652 53.2495Z" fill="white"/>
<path d="M13.4496 58.6636C12.7964 58.6683 12.2632 58.1226 12.2586 57.4448L12.2549 56.8925C12.2504 56.2147 12.7763 55.6614 13.4296 55.6567L21.8274 55.5964L21.8475 58.6032L13.4496 58.6636Z" fill="white"/>
<path d="M15.3719 65.465C15.389 66.1426 14.8735 66.7063 14.2205 66.7241L13.6884 66.7386C13.0354 66.7564 12.4921 66.2215 12.4749 65.5439L12.2545 56.833L15.1515 56.7541L15.3719 65.465Z" fill="white"/>
<path d="M15.2931 42.4494C14.6399 42.4541 14.1067 41.9084 14.1021 41.2306L14.0985 40.6784C14.0939 40.0005 14.6198 39.4473 15.2731 39.4426L21.7193 39.3963L21.7394 42.4031L15.2931 42.4494Z" fill="white"/>
<path d="M9.0474 37.094C8.39415 37.0987 7.86093 36.553 7.85641 35.8752L7.85272 35.3229C7.8482 34.6451 8.37409 34.0918 9.02733 34.0871L21.6833 33.9962L21.7034 37.0031L9.0474 37.094Z" fill="white"/>
<path d="M7.74061 23.9516C7.74032 23.2738 8.26966 22.7241 8.92292 22.7238L9.45519 22.7235C10.1084 22.7232 10.6383 23.2725 10.6385 23.9503L10.6441 37.0825L7.74618 37.0838L7.74061 23.9516Z" fill="white"/>
<path d="M1.1947 47.951C0.541462 47.9557 0.00823746 47.41 0.00371437 46.7322L2.89593e-05 46.1799C-0.00449414 45.5021 0.521397 44.9489 1.17464 44.9442L21.7554 44.7963L21.7754 47.8032L1.1947 47.951Z" fill="white"/>
<path d="M13.9547 63.4466C15.2938 63.4369 16.3869 64.5556 16.3962 65.9451C16.4055 67.3346 15.3274 68.4688 13.9883 68.4784C12.6491 68.488 11.556 67.3694 11.5467 65.9799C11.5375 64.5904 12.6155 63.4562 13.9547 63.4466Z" fill="white"/>
<path d="M9.11835 21.138C10.4575 21.1284 11.5506 22.247 11.5599 23.6365C11.5692 25.0261 10.4911 26.1603 9.15193 26.1699C7.81278 26.1795 6.71967 25.0609 6.7104 23.6714C6.70113 22.2819 7.7792 21.1477 9.11835 21.138Z" fill="white"/>
<path d="M48.5 33C49.0162 33 49.4346 33.4352 49.4346 33.972V38.8561C49.4346 39.3929 49.853 39.828 50.3692 39.828H55.0654C55.5816 39.828 56 40.2632 56 40.8V51.2C56 51.7368 55.5816 52.172 55.0654 52.172H50.3692C49.853 52.172 49.4346 52.6071 49.4346 53.1439V58.028C49.4346 58.5648 49.0162 59 48.5 59H38.5C37.9838 59 37.5654 58.5648 37.5654 58.028V53.1439C37.5654 52.6071 37.147 52.172 36.6308 52.172H31.9346C31.4184 52.172 31 51.7368 31 51.2V40.8C31 40.2632 31.4184 39.828 31.9346 39.828H36.6308C37.147 39.828 37.5654 39.3929 37.5654 38.8561V33.972C37.5654 33.4352 37.9838 33 38.5 33H48.5Z" fill="#D80027"/>
</svg>
